<svg xmlns="http://www.w3.org/2000/svg" xmlns:xlink="http://www.w3.org/1999/xlink" version="1.1" x="0px" y="0px" viewBox="1 -1 100 125" style="enable-background:new 1 -1 100 100;" xml:space="preserve"><title>42 all</title><g><g><path d="M69.1,6.8c4,0,7.3,3.3,7.3,7.3c0,2-0.8,3.9-2.2,5.3L43.2,49l31,29.6c2.9,2.7,3.1,7.3,0.4,10.3    c-2.7,2.9-7.3,3.1-10.3,0.4c-0.1-0.1-0.1-0.1-0.2-0.2L27.7,54.2c-2.9-2.8-3-7.4-0.2-10.3c0.1-0.1,0.1-0.2,0.2-0.2L64,8.9    C65.4,7.6,67.2,6.9,69.1,6.8z"/></g></g><text x="1" y="114" fill="#000000" font-size="5px" font-weight="bold" font-family="'Helvetica Neue', Helvetica, Arial-Unicode, Arial, Sans-serif">Created by Logan</text><text x="1" y="119" fill="#000000" font-size="5px" font-weight="bold" font-family="'Helvetica Neue', Helvetica, Arial-Unicode, Arial, Sans-serif">from the Noun Project</text></svg>